<svg width="48" height="48" viewBox="0 0 48 48" fill="none" xmlns="http://www.w3.org/2000/svg">
<path d="M44.92 12C43.38 12.7 41.72 13.16 40 13.38C41.76 12.32 43.12 10.64 43.76 8.62C42.1 9.62 40.26 10.32 38.32 10.72C36.74 9 34.52 8 32 8C27.3 8 23.46 11.84 23.46 16.58C23.46 17.26 23.54 17.92 23.68 18.54C16.56 18.18 10.22 14.76 5.99996 9.58C5.25996 10.84 4.83996 12.32 4.83996 13.88C4.83996 16.86 6.33996 19.5 8.65996 21C7.23996 21 5.91996 20.6 4.75996 20C4.75996 20 4.75996 20 4.75996 20.06C4.75996 24.22 7.71996 27.7 11.64 28.48C10.92 28.68 10.16 28.78 9.37996 28.78C8.83996 28.78 8.29996 28.72 7.77996 28.62C8.85996 32 12 34.52 15.78 34.58C12.86 36.9 9.15996 38.26 5.11996 38.26C4.43996 38.26 3.75996 38.22 3.07996 38.14C6.87996 40.58 11.4 42 16.24 42C32 42 40.66 28.92 40.66 17.58C40.66 17.2 40.66 16.84 40.64 16.46C42.32 15.26 43.76 13.74 44.92 12Z" fill="white"/>
</svg>
